<svg version="1" xmlns="http://www.w3.org/2000/svg" width="400" height="400" viewBox="0 0 300.000000 300.000000"><path d="M160.4 11.1c-6.9 4.8-18.5 16.4-23 22.9-8.4 12.4-13.6 29.9-13.6 45.5 0 5.5.5 12.8 1 16.2 1.3 7.7 6 19.6 10.7 26.9 4.1 6.4 13.4 15.8 20 20.4l4.4 3h94.4l5.4-4.1c9.7-7.3 15.4-14 20.8-24.3 7.3-13.9 9.5-23.3 9-39.6-.7-28-13.8-51.6-37.7-67.8L247.1 7h-80.8l-5.9 4.1zM249 23.5c14 10.8 23.5 25.7 27 42.3 1.3 6 1.7 19 .7 25.2-2.4 15.1-11.2 30.1-23.4 39.7l-4.1 3.3h-84.9l-5-4c-10.8-8.6-18.2-20.7-22-36-1-3.9-1-19.2-.1-25 2.8-17.7 14.3-36.4 28.6-46.7l4.3-3.1h36.7l36.7.1 5.5 4.2z"/><path d="M173.5 63v19.5l5-.1 5-.1V63.6c0-10.3-.2-19-.5-19.4-.3-.4-2.5-.7-5-.7h-4.5V63zM230.2 63.3l-.2 15.3h10V48h-9.7l-.1 15.3zM202.8 104c-5.9 1.8-7.8 5.7-7.8 15.9v8.1h22.8v-6.8c.1-3.7-.4-8.1-.9-9.8-1.9-6.1-8-9.4-14.1-7.4zM99.5 118.2c-2.8 1.7-2.6 1.3-19 22.8-8.1 10.7-15.2 19.9-15.6 20.4-.7.7-6.6-2.6-7.9-4.5-1-1.4-6.1-2.9-9.8-2.9-8.7 0-15.6 9.5-13.1 18.2.5 2.1 1.4 4 1.9 4.3.6.4 1 1.2 1 1.9 0 1.1-9.6 14.3-13.8 19.1-3.3 3.7-8.2 11.4-10.3 16.2-1.6 3.5-2.2 7.1-2.3 13.3-.1 11.5 1.7 17.2 8.7 26.2l2.8 3.8-3.2 3.9c-3.7 4.7-4.3 10.2-1.6 14.5 3 4.6 21.4 17.6 24.8 17.6 4.7 0 8.1-2.3 12.5-8.5 1.3-1.8 1.5-1.9 4.3-.2 7.3 4.3 21.4 5.4 30.1 2.2 10.5-3.7 14.7-7.4 26.4-22.5 3.7-4.7 7.7-9.8 9.1-11.5 1.4-1.6 2.5-3.3 2.5-3.8 0-.4.9-.3 2.1.3 3.2 1.8 9.5 1.4 13.1-.7 6.2-3.6 8.8-12 6-18.9-.7-1.6-3.5-4.5-6.2-6.4-2.7-1.9-4.9-3.7-4.9-4-.1-.3 6.7-9.3 15-20 8.4-10.7 16-20.9 17-22.5 5.6-8.9-2.5-20.1-12.6-17.4-3.4 1-14 12-17.9 18.8-.5.9-1.4 2.1-2 2.7-.6.6-5.1 6.1-9.9 12.3-6.2 7.9-9.2 11-10 10.3-.7-.5-5.7-4.4-11.2-8.6-5.5-4.3-11.1-8.6-12.5-9.7-1.4-1.1-4.2-3.2-6.2-4.7-2.1-1.5-3.8-3-3.8-3.3 0-.4 7.4-10.2 16.5-21.8 11.4-14.7 16.6-22.2 17.1-24.6.8-4.3-.9-8.8-4.4-11.5-2.8-2.2-9.5-2.6-12.7-.8zm6.9 6.8c1.8.6 2.6 1.7 2.6 3.2-.1 2.8-31.6 43.4-33.3 43-.7-.2-2.2-1.3-3.4-2.4l-2.2-2.1 6.7-8.6c3.6-4.7 6.9-8.8 7.2-9.1.3-.3 1.8-2.3 3.5-4.5 1.6-2.2 3.1-4.2 3.4-4.5.4-.3 2.8-3.4 5.6-7 5.2-6.8 6.9-8.9 7.2-9 .1 0 1.3.4 2.7 1zM52 163.1c1.9 1.2 6.6 4.7 10.5 7.8 3.8 3.1 9.7 7.7 13 10.1 3.3 2.5 6.8 5.2 7.7 6 .9.8 14.1 10.9 29.2 22.5 25.1 19.3 29.6 23.3 29.6 26.8-.1 2.2-3.5 5.6-6.1 6.1-2.4.4-11.4-5.8-30.1-20.7-1.5-1.2-16.3-12.6-32.7-25.2-18.6-14.3-30.4-24-31.1-25.7-1.5-3.5-.5-6.5 2.8-8.3 3.4-1.8 3.1-1.9 7.2.6zm110.3 4.6c1.3 1.6 1.4 2.2.2 4.8-.7 1.6-2.4 4.2-3.7 5.7-1.2 1.4-8.1 10.1-15.2 19.2L130.7 214l-2.8-2.1c-3.3-2.3-4.5-3.9-3-3.9.6 0 1.1-.6 1.1-1.4 0-.8.3-1.6.8-1.8.4-.2 7-8.4 14.6-18.3 16.9-22.1 17.5-22.5 20.9-18.8zM47.8 186.5c.7.5 1.8 1.5 2.5 2 .7.6 3.2 2.6 5.7 4.5s5 3.9 5.7 4.5c.6.5 5.3 4.1 10.3 8 9 6.9 33 25.4 36 27.8.9.7 4.1 3.2 7.3 5.6 3.1 2.4 5.7 4.8 5.7 5.3s-2.6 4.2-5.8 8.1c-3.1 4-7.1 9-8.7 11.2-4.4 6-11.1 12.3-15.7 14.6-5.8 3-17 3.7-23.6 1.5-4.7-1.6-15.1-8.3-21.4-13.8-1.4-1.3-3.6-3-4.8-3.8-4.8-3.4-8.8-6.7-14-12-4.4-4.3-6-6.9-7.7-11.9-2.4-7.5-2.3-15.5.4-21.6 1.5-3.6 7.2-12.4 9.8-15.1.5-.6 3.9-4.9 7.5-9.6 5.4-7.2 6.7-8.4 8-7.5.8.7 2.1 1.6 2.8 2.2zm-8.7 83.7l10.8 8.1-2 2.9c-4 5.6-4.9 5.5-15.1-2.5-5.1-4-9.4-8-9.6-8.9-.3-1.5 3.5-7.8 4.6-7.8.3 0 5.4 3.7 11.3 8.2z"/></svg>